<svg width="96" height="96" viewBox="0 0 96 96" fill="none" xmlns="http://www.w3.org/2000/svg">
  <rect width="96" height="96" rx="28" fill="url(#paint0_linear_82_2)"/>
  <path d="M28 56.3C28 41.2 37.8 31 53.6 31C61.7 31 67.9 33.8 72.2 38.7L63.7 46.2C60.9 43.3 57.8 41.9 53.9 41.9C46.3 41.9 41.2 47.2 41.2 56.3C41.2 65.4 46.3 70.7 53.9 70.7C57.8 70.7 60.9 69.3 63.7 66.3L72.2 73.8C67.9 78.8 61.7 81.6 53.5 81.6C37.8 81.6 28 71.3 28 56.3Z" fill="white"/>
  <defs>
    <linearGradient id="paint0_linear_82_2" x1="10" y1="10" x2="88" y2="90" gradientUnits="userSpaceOnUse">
      <stop stop-color="#5F86FF"/>
      <stop offset="1" stop-color="#F59E54"/>
    </linearGradient>
  </defs>
</svg>
